<svg xmlns="http://www.w3.org/2000/svg" viewBox="0 0 64 64"><defs><style>.cls-1{fill:#fff;fill-rule:evenodd;}</style></defs><g id="Ebene_2" data-name="Ebene 2"><g id="Symbol1"><polygon class="cls-1" points="18.29 0 9.14 0 0 0 0 27.43 9.14 27.43 9.14 9.14 18.29 9.14 18.29 27.43 27.43 27.43 27.43 0 18.29 0"/><polygon class="cls-1" points="54.86 0 45.71 0 36.57 0 36.57 27.43 45.71 27.43 45.71 9.14 54.86 9.14 54.86 27.43 64 27.43 64 0 54.86 0"/><polygon class="cls-1" points="18.29 36.57 9.14 36.57 0 36.57 0 64 9.14 64 9.14 45.72 18.29 45.72 18.29 64 27.43 64 27.43 36.57 18.29 36.57"/><polygon class="cls-1" points="54.86 36.57 45.71 36.57 36.57 36.57 36.57 64 45.71 64 45.71 45.72 54.86 45.72 54.86 64 64 64 64 36.57 54.86 36.57"/></g></g></svg>