<svg xmlns="http://www.w3.org/2000/svg" viewBox="0 0 64 64"><defs><style>.cls-1{fill:#fff;}</style></defs><g id="Ebene_2" data-name="Ebene 2"><g id="Symbol20"><polygon class="cls-1" points="64 18.29 64 27.43 36.57 27.43 36.57 0 45.71 0 45.71 9.14 54.86 9.14 54.86 18.29 64 18.29"/><polygon class="cls-1" points="18.29 0 27.43 0 27.43 27.43 0 27.43 0 18.29 9.14 18.29 9.14 9.14 18.29 9.14 18.29 0"/><polygon class="cls-1" points="27.43 36.57 27.43 64 0 64 0 45.71 9.14 45.71 9.14 54.86 18.29 54.86 18.29 36.57 27.43 36.57"/><polygon class="cls-1" points="64 36.57 64 64 36.57 64 36.57 45.71 45.71 45.71 45.71 54.86 54.86 54.86 54.86 36.57 64 36.57"/></g></g></svg>