<svg id="Ebene_1" data-name="Ebene 1" xmlns="http://www.w3.org/2000/svg" viewBox="0 0 64 64"><defs><style>.cls-1{fill:#fff;}</style></defs><rect class="cls-1" x="12" y="56" width="2" height="2"/><rect class="cls-1" x="16" y="56" width="2" height="2"/><rect class="cls-1" x="20" y="56" width="2" height="2"/><rect class="cls-1" x="24" y="56" width="2" height="2"/><rect class="cls-1" x="28" y="56" width="2" height="2"/><rect class="cls-1" x="32" y="56" width="2" height="2"/><rect class="cls-1" x="36" y="56" width="2" height="2"/><rect class="cls-1" x="40" y="56" width="2" height="2"/><rect class="cls-1" x="44" y="56" width="2" height="2"/><rect class="cls-1" x="16" y="20" width="2" height="2"/><rect class="cls-1" x="14" y="4" width="8" height="2"/><path class="cls-1" d="M14,50V48h2V44h2v4h2v4h2V48h2V44h2v4h2v4h2V48h2V44h2v4h2v4h2V44h2v4h2v2h2v2h2V46H44V42H42V38H40V34H38V30H36V26H34V22H32V18H30V14H28V10H26V0H12V52h2ZM14,2h8v8H14Zm0,16h6v6H14Z"/><rect class="cls-1" x="46" y="50" width="2" height="2"/><rect class="cls-1" x="46" y="50" width="2" height="4"/><rect class="cls-1" x="48" y="56" width="2" height="2"/><polyline class="cls-1" points="12 62 52 62 52 60 12 60"/><polyline class="cls-1" points="12 54 46 54 46 52 12 52"/></svg>