<svg xmlns="http://www.w3.org/2000/svg" viewBox="0 0 64 64"><defs><style>.cls-1{fill:#fff;}</style></defs><g id="Ebene_2" data-name="Ebene 2"><g id="Symbol14"><rect class="cls-1" y="54.86" width="9.14" height="9.14"/><polygon class="cls-1" points="0 36.57 27.43 36.57 27.43 64 18.29 64 18.29 45.71 0 45.71 0 36.57"/><rect class="cls-1" x="54.86" y="54.86" width="9.14" height="9.14"/><polygon class="cls-1" points="64 36.57 64 45.71 45.71 45.71 45.71 64 36.57 64 36.57 36.57 64 36.57"/><polygon class="cls-1" points="45.71 18.29 64 18.29 64 27.43 36.57 27.43 36.57 0 45.71 0 45.71 18.29"/><rect class="cls-1" x="54.86" width="9.14" height="9.14"/><rect class="cls-1" width="9.14" height="9.14"/><polygon class="cls-1" points="18.29 0 27.43 0 27.43 27.43 0 27.43 0 18.29 18.29 18.29 18.29 0"/></g></g></svg>