<svg xmlns="http://www.w3.org/2000/svg" viewBox="0 0 64 64"><defs><style>.cls-1{fill:#fff;}</style></defs><g id="Ebene_2" data-name="Ebene 2"><g id="Symbol10"><polygon class="cls-1" points="27.43 0 27.43 9.14 9.14 9.14 9.14 27.43 0 27.43 0 0 27.43 0"/><polygon class="cls-1" points="64 0 64 27.43 54.86 27.43 54.86 9.14 36.57 9.14 36.57 0 64 0"/><polygon class="cls-1" points="64 36.57 64 64 54.86 64 54.86 45.71 36.57 45.71 36.57 36.57 64 36.57"/><polygon class="cls-1" points="0 36.57 27.43 36.57 27.43 45.71 9.14 45.71 9.14 64 0 64 0 36.57"/><rect class="cls-1" x="18.29" y="18.29" width="9.14" height="9.14"/><rect class="cls-1" x="36.57" y="54.86" width="9.14" height="9.14"/><rect class="cls-1" x="18.29" y="54.86" width="9.14" height="9.14"/><rect class="cls-1" x="36.58" y="18.29" width="9.14" height="9.14"/></g></g></svg>