<svg xmlns="http://www.w3.org/2000/svg" viewBox="0 0 64 64"><defs><style>.cls-1{fill:#fff;}</style></defs><g id="Ebene_2" data-name="Ebene 2"><g id="Symbol4"><polygon class="cls-1" points="0 36.57 27.43 36.57 27.43 64 18.29 64 18.29 54.86 9.14 54.86 9.14 45.72 0 45.72 0 36.57"/><polygon class="cls-1" points="64 36.57 36.57 36.57 36.57 64 45.71 64 45.71 54.86 54.86 54.86 54.86 45.72 64 45.72 64 36.57"/><polygon class="cls-1" points="18.29 27.43 9.14 27.43 0 27.43 0 0 9.14 0 9.14 18.29 18.29 18.29 18.29 0 27.43 0 27.43 27.43 18.29 27.43"/><polygon class="cls-1" points="54.86 27.43 45.71 27.43 36.57 27.43 36.57 0 45.71 0 45.71 18.29 54.86 18.29 54.86 0 64 0 64 27.43 54.86 27.43"/></g></g></svg>