<svg xmlns="http://www.w3.org/2000/svg" viewBox="0 0 64 64"><defs><style>.cls-1{fill:#fff;}</style></defs><g id="Ebene_2" data-name="Ebene 2"><g id="Symbol17"><polygon class="cls-1" points="64 54.86 64 64 36.57 64 36.57 36.57 45.71 36.57 45.71 45.71 54.86 45.71 54.86 54.86 64 54.86"/><polygon class="cls-1" points="27.43 54.86 27.43 64 0 64 0 36.57 9.14 36.57 9.14 45.71 18.29 45.71 18.29 54.86 27.43 54.86"/><polygon class="cls-1" points="64 0 64 27.43 54.86 27.43 54.86 9.14 45.71 9.14 45.71 18.29 36.57 18.29 36.57 0 64 0"/><polygon class="cls-1" points="27.43 0 27.43 27.43 0 27.43 0 9.14 9.14 9.14 9.14 18.29 18.29 18.29 18.29 0 27.43 0"/></g></g></svg>